HIERARCHY
ROOT Bip001_Pelvis
{
  OFFSET 34.4345 95.6767 -26.8758
  CHANNELS 6 Xposition Yposition Zposition Zrotation Xrotation Yrotation
  JOINT Bip001_Spine
  {
    OFFSET 1.4188e-005 10.2191 -0.0116013
    CHANNELS 3 Zrotation Xrotation Yrotation
    JOINT Bip001_L_Thigh
    {
      OFFSET 11.0458 -10.2192 0.0116197
      CHANNELS 3 Zrotation Xrotation Yrotation
      JOINT Bip001_L_Calf
      {
        OFFSET -0.707118 -44.0221 0.360014
        CHANNELS 3 Zrotation Xrotation Yrotation
        JOINT Bip001_L_Foot
        {
          OFFSET -0.651902 -40.5938 -3.56146
          CHANNELS 3 Zrotation Xrotation Yrotation
          JOINT Bip001_L_Toe0
          {
            OFFSET 0.0530839 -10.2181 13.1504
            CHANNELS 3 Zrotation Xrotation Yrotation
            End Site
            {
              OFFSET -1.02532e-005 0 7.55606
            }
          }
        }
      }
    }
    JOINT Bip001_R_Thigh
    {
      OFFSET -11.0458 -10.2191 0.0115893
      CHANNELS 3 Zrotation Xrotation Yrotation
      JOINT Bip001_R_Calf
      {
        OFFSET 0.706994 -44.0221 0.35984
        CHANNELS 3 Zrotation Xrotation Yrotation
        JOINT Bip001_R_Foot
        {
          OFFSET 0.651786 -40.5938 -3.5613
          CHANNELS 3 Zrotation Xrotation Yrotation
          JOINT Bip001_R_Toe0
          {
            OFFSET -0.0531479 -10.2181 13.1504
            CHANNELS 3 Zrotation Xrotation Yrotation
            End Site
            {
              OFFSET -1.02894e-005 0 7.55606
            }
          }
        }
      }
    }
    JOINT Bip001_Spine1
    {
      OFFSET 1.87041e-005 14.5736 1.08638
      CHANNELS 3 Zrotation Xrotation Yrotation
      JOINT Bip001_Spine2
      {
        OFFSET 2.24614e-005 14.5058 -1.69078
        CHANNELS 3 Zrotation Xrotation Yrotation
        JOINT Bip001_Neck
        {
          OFFSET 2.20278e-005 15.3945 -0.489414
          CHANNELS 3 Zrotation Xrotation Yrotation
          JOINT Bip001_L_Clavicle
          {
            OFFSET 6.06036 -0.000579998 0.00836775
            CHANNELS 3 Zrotation Xrotation Yrotation
            JOINT Bip001_L_UpperArm
            {
              OFFSET 11.5509 -0.0600302 0.00193952
              CHANNELS 3 Zrotation Xrotation Yrotation
              JOINT Bip001_L_Forearm
              {
                OFFSET 25.9523 0.0806089 -2.15551
                CHANNELS 3 Zrotation Xrotation Yrotation
                JOINT Bip001_L_Hand
                {
                  OFFSET 32.2475 0.153767 1.63968
                  CHANNELS 3 Zrotation Xrotation Yrotation
                  JOINT Bip001_L_Finger0
                  {
                    OFFSET 6.04639 -2.20976 5.90322
                    CHANNELS 3 Zrotation Xrotation Yrotation
                    End Site
                    {
                      OFFSET 4.22375 -1.43895 0.606485
                    }
                  }
                  JOINT Bip001_L_Finger1
                  {
                    OFFSET 11.0826 -0.704819 -0.198153
                    CHANNELS 3 Zrotation Xrotation Yrotation
                    End Site
                    {
                      OFFSET 6.20027 -0.397518 -0.0787166
                    }
                  }
                }
              }
            }
          }
          JOINT Bip001_R_Clavicle
          {
            OFFSET -6.06037 -0.000563197 0.00835105
            CHANNELS 3 Zrotation Xrotation Yrotation
            JOINT Bip001_R_UpperArm
            {
              OFFSET -11.5509 -0.0599978 0.00190698
              CHANNELS 3 Zrotation Xrotation Yrotation
              JOINT Bip001_R_Forearm
              {
                OFFSET -25.9523 0.0806822 -2.15589
                CHANNELS 3 Zrotation Xrotation Yrotation
                JOINT Bip001_R_Hand
                {
                  OFFSET -32.2475 0.153859 1.63989
                  CHANNELS 3 Zrotation Xrotation Yrotation
                  JOINT Bip001_R_Finger0
                  {
                    OFFSET -6.04641 -2.20976 5.90317
                    CHANNELS 3 Zrotation Xrotation Yrotation
                    End Site
                    {
                      OFFSET -4.22376 -1.43895 0.60647
                    }
                  }
                  JOINT Bip001_R_Finger1
                  {
                    OFFSET -11.0826 -0.704794 -0.198182
                    CHANNELS 3 Zrotation Xrotation Yrotation
                    End Site
                    {
                      OFFSET -6.20028 -0.397504 -0.0787333
                    }
                  }
                }
              }
            }
          }
          JOINT Bip001_Head
          {
            OFFSET 1.09673e-005 11.2744 2.05948
            CHANNELS 3 Zrotation Xrotation Yrotation
            End Site
            {
              OFFSET 2.89576e-005 20.8808 -2.77728e-005
            }
          }
        }
      }
    }
  }
}
MOTION
Frames:	11
Frame Time:	0.04
35.1788 95.4352 -29.1515 -0.878126 0.131798 -6.59475 0.318008 1.97249 -1.86449 5.46008 -2.43323 12.8655 -1.0946 12.1441 3.70421 3.90942 -7.10402 0.0848339 1.42227 -5.10752 -0.654807 -4.42354 -5.62051 3.5915 0.540176 12.2399 -0.0530296 -6.24466 -8.33372 0.173733 2.98469 -10.3527 3.84565 0.696748 3.93336 -3.7434 0.700178 3.93364 -3.7432 8.07317 0.145159 3.83515 -27.9454 3.48878 -6.79762 -62.9004 36.9818 9.59738 16.667 -0.338542 -25.9398 7.20508 1.25233 -3.56365 -3.18055e-015 -3.18055e-015 -0 -3.18055e-015 -3.18056e-015 -0 14.4503 1.70925 2.55389 25.0312 -61.8587 -30.5813 -38.3145 -9.61964 114.469 -28.7486 -4.8675 4.70021 0 0 -3.18055e-015 0 0 -4.77083e-015 -10.0188 -10.8323 7.59872 
35.3191 95.4549 -29.0673 -1.09132 0.081972 -6.51929 0.295512 1.98392 -1.60912 5.63666 -2.52052 11.2465 -1.31903 12.4858 4.97966 3.18789 -7.66774 0.0887832 1.08153 -4.56602 -0.372342 -4.28999 -5.40339 3.1119 0.450643 12.0418 -0.0262765 -6.14816 -8.10385 0.293139 2.96548 -10.3021 3.83992 0.647269 3.95871 -3.23137 0.64727 3.95872 -3.23137 7.8634 0.0954174 3.59124 -28.022 3.56216 -7.00758 -62.2974 37.31 8.85057 17.3175 -1.34165 -26.6465 7.21178 1.3471 -3.30927 -6.36111e-015 -9.54166e-015 -0 -3.18055e-015 -9.54167e-015 -0 14.2305 2.43445 5.03448 30.7628 -63.8652 -18.894 -38.4619 -10.5434 117.117 -27.5095 -3.86459 4.17141 -3.18055e-015 3.18055e-015 1.59028e-015 0 3.18056e-015 -0 -9.88825 -10.8934 7.26547 
35.3563 95.4631 -29.0675 -1.23912 0.391511 -5.66959 0.253375 1.99426 -1.28898 6.00055 -3.26132 12.775 -0.980233 13.0889 2.43568 3.14269 -7.90769 0.0912558 1.07789 -4.38196 -0.458243 -4.11765 -5.46538 2.6986 0.544111 11.8851 -0.0887043 -6.22845 -7.85844 -0.312761 2.94474 -10.2099 3.76569 0.551933 3.98247 -2.58913 0.551522 3.9822 -2.58911 8.25534 -1.00922 2.61139 -28.7153 4.30759 -6.30659 -61.192 38.0049 7.75119 17.7007 -2.87283 -27.8494 7.19796 1.35781 -3.22363 -3.18055e-015 0 1.59028e-015 -3.18055e-015 0 -1.59028e-015 12.9938 4.49048 8.5492 40.3659 -61.5645 -1.5816 -39.3387 -10.7057 115.485 -28.0658 -3.62239 2.87523 0 0 -0 -3.18055e-015 0 -7.95139e-016 -10.1259 -9.90367 6.42963 
35.3811 95.5336 -29.1464 -1.22395 0.848166 -4.04882 0.198054 1.94766 -0.926331 6.13457 -4.02323 11.8304 -1.02731 12.9115 1.65031 3.10271 -7.63899 0.0835388 1.1907 -4.31648 -0.628331 -4.13758 -5.38246 1.31489 0.61791 11.411 -0.191368 -6.2934 -7.55229 -0.798624 2.91705 -10.1181 3.72719 0.428262 3.89186 -1.86091 0.43605 3.89185 -1.86126 8.82259 -2.14472 1.32289 -29.956 5.01853 -5.62274 -59.849 38.7614 7.33072 17.6515 -4.78405 -29.8594 7.15267 1.03384 -3.07495 3.18055e-015 -3.18055e-015 1.59028e-015 3.18055e-015 -3.18056e-015 -0 10.3499 6.42926 12.5145 50.3028 -57.1149 16.5963 -40.5045 -8.79017 111.062 -25.7052 -3.91466 2.90752 -3.18055e-015 -7.95139e-016 1.59028e-015 -3.18055e-015 7.95139e-016 7.95139e-016 -10.7212 -8.22433 5.45082 
35.2371 95.6363 -29.3142 -1.35786 1.3603 -1.97388 0.230461 1.85694 -0.544813 6.36672 -4.96771 10.1094 -1.04641 12.7707 1.17637 2.40192 -7.59297 0.0749185 1.07606 -3.90744 -0.613243 -3.93893 -5.02711 -0.214103 0.592061 10.4398 -0.217165 -6.41144 -7.01953 -1.55875 2.85961 -9.93583 3.64831 0.479443 3.71156 -1.09803 0.473507 3.71157 -1.09783 8.86408 -3.7891 0.177105 -31.292 6.09587 -4.31481 -58.6132 39.8705 7.58882 17.7887 -6.55625 -32.0805 7.08528 0.592967 -2.85344 -6.36111e-015 3.18055e-015 3.18055e-015 -3.18055e-015 -3.18056e-015 -0 6.0901 8.24109 16.3741 58.1333 -49.2877 33.5238 -41.1991 -4.10645 102.319 -23.3934 -5.81376 4.31445 -0 0 7.95139e-016 3.18055e-015 1.59028e-015 1.19271e-015 -11.1608 -5.28979 4.56635 
34.8078 95.7065 -29.6376 -1.77442 2.30075 0.530014 0.342477 1.77509 -0.0937357 6.95861 -6.85752 7.88868 -1.23548 13.1503 0.732316 2.25192 -7.27832 0.0679445 1.14486 -3.93312 -0.611141 -3.27435 -5.11537 -1.52369 0.434119 9.37018 -0.352891 -6.66868 -6.37498 -2.77897 2.81602 -9.75764 3.53041 0.705871 3.54971 -0.197533 0.697526 3.54968 -0.198647 7.75504 -6.31706 -0.752042 -31.6136 7.99746 -2.60561 -55.7419 40.9218 7.24299 16.1751 -8.05525 -35.2306 7.04494 0.616618 -2.07151 -3.18055e-015 3.18055e-015 6.36111e-015 -3.18055e-015 6.36111e-015 3.18055e-015 2.19996 10.3775 19.974 60.2382 -40.7466 48.2753 -47.069 0.486048 86.6637 -33.3155 -6.71023 3.75413 2.20695e-032 3.18055e-015 -3.97569e-016 -3.18055e-015 3.18056e-015 1.59028e-015 -10.2264 -2.10479 3.25867 
34.4391 95.7839 -29.9305 -1.92668 3.84071 3.63358 0.309788 1.68286 0.370836 7.2012 -9.34785 6.06906 -1.28187 13.2993 -0.239701 0.924368 -7.51267 0.0534839 0.928265 -3.20813 -0.58751 -2.97426 -5.86638 -2.77939 0.491201 8.61719 -0.407992 -7.05449 -5.86961 -4.66335 2.7666 -9.52009 3.34242 0.609064 3.36766 0.733036 0.609063 3.36765 0.733035 6.76583 -9.05119 -2.01682 -31.9537 9.95604 -0.747185 -52.8864 41.7719 6.95412 16.2925 -8.86561 -37.6844 6.72113 0.597405 -1.63562 -7.06225e-031 -6.36111e-015 -6.36111e-015 -1.76556e-031 -3.18056e-015 -3.18055e-015 1.21769 12.9017 21.8993 85.7336 -45.7354 71.7438 -67.2003 4.93426 85.6586 -27.5288 -16.8068 2.60574 1.59028e-015 0 7.95139e-016 -0 0 3.97569e-016 -9.22465 0.176628 1.62072 
34.2093 95.8185 -30.0898 -1.69303 5.03574 7.54184 -0.00439276 1.51545 0.222821 6.90267 -10.9218 6.02154 -0.89416 12.3926 -3.2235 0.847763 -6.66302 0.0424592 1.34462 -3.20349 -1.27612 -3.10069 -6.36151 -2.62163 1.04146 8.67021 -0.775237 -7.89009 -5.70166 -7.68566 2.71732 -9.2649 3.14932 -0.0234069 3.03117 0.471733 -0.0180932 3.03118 0.458314 12.1561 -7.56862 -3.62117 -33.0226 7.57526 -1.18228 -57.5293 40.0578 9.5866 17.3467 -9.58328 -39.0368 7.66569 0.636581 -1.22798 7.06225e-031 6.36111e-015 -6.36111e-015 1.58901e-030 9.54167e-015 -9.54166e-015 3.40397 12.0408 17.7917 68.2241 -46.3777 67.4199 -51.2418 0.356546 75.2517 -24.6101 -9.1491 0.647802 1.59028e-015 3.18055e-015 1.19271e-015 -1.59028e-015 4.77083e-015 -0 -12.8882 -1.48354 1.98771 
34.2672 95.8799 -29.9438 -0.356291 3.99201 9.04774 -0.0238629 1.53931 -0.457572 5.46614 -8.90562 8.83819 -0.0947675 10.3779 -6.54343 -0.266968 -6.06754 0.0309476 1.38213 -2.34831 -1.59109 -4.37208 -5.43437 -3.01902 1.18773 9.97304 -0.842185 -8.23682 -6.39244 -8.06387 2.6843 -9.168 3.10177 -0.00309429 3.07799 -0.897707 -0.0173878 3.07801 -0.911952 14.3931 -2.43398 -4.02693 -32.4196 2.98522 -4.38098 -63.4368 35.9288 15.37 16.257 -8.8438 -41.3394 7.92115 1.29026 -0.55794 -6.36111e-015 -3.18055e-015 -3.18055e-015 -6.36111e-015 0 -0 0.917055 6.26083 17.2992 51.7142 -43.1286 56.9251 -44.0314 -1.6079 66.3825 -20.8123 -4.38247 2.60924 -3.18055e-015 1.59028e-015 3.57812e-015 -6.36111e-015 3.18056e-015 -7.95139e-016 -15.0783 -4.42869 2.96643 
34.2739 95.9137 -29.9499 0.00842681 2.9331 5.6995 0.572296 1.7871 -0.775263 5.13359 -7.03313 10.6444 -0.598463 9.8695 -4.65216 -1.0853 -6.52697 0.0287984 1.01434 -1.798 -1.32353 -4.99436 -5.69702 -1.47719 0.809316 10.8261 -0.143586 -7.97968 -6.57028 -6.7026 2.61149 -8.97254 3.06225 1.16078 3.56604 -1.59504 1.16349 3.5661 -1.57125 10.1623 -1.95754 -1.3511 -30.3142 3.14708 -2.40709 -64.6186 38.1896 17.3842 16.4602 -6.51425 -40.7804 5.58129 1.14207 -1.32493 3.18055e-015 -6.36111e-015 4.77083e-015 1.05934e-030 -9.54167e-015 6.36111e-015 0.0304247 5.3354 16.8809 39.472 -36.5118 49.3553 -39.485 -6.12785 58.8002 -12.0847 -3.46059 3.05893 -3.18055e-015 0 -1.59028e-015 -3.18055e-015 1.59028e-015 7.95139e-016 -13.6338 -4.20508 4.06625 
34.1332 95.8857 -30.2265 -0.152206 3.17444 1.24109 0.886063 1.95447 -0.642245 5.46002 -6.83786 12.3417 -0.758918 10.4312 -1.5857 -3.68438 -8.58135 -0.0289347 -0.2853 0.0436284 -0.212685 -4.79002 -7.45526 0.608604 0.417588 11.4347 0.400283 -7.70019 -6.59843 -5.13566 2.54493 -8.81953 3.06358 1.79955 3.89903 -1.31315 1.8024 3.89915 -1.31626 9.62271 -2.70874 -0.625049 -30.9126 3.91838 -1.50929 -63.7365 42.4396 15.0179 15.9702 -3.56561 -34.7236 4.49617 0.392922 -4.22847 0 0 -1.59028e-015 -3.18055e-015 3.18056e-015 -0 -1.46013 5.98539 17.881 29.9279 -29.6982 44.1569 -35.5748 -11.2935 53.9339 -11.5127 -4.92511 2.93702 3.18055e-015 6.36111e-015 -3.97569e-015 -3.18055e-015 4.77083e-015 -2.38542e-015 -13.945 -5.10927 4.62663 
